<svg width="512" height="512" viewBox="0 0 512 512" xmlns="http://www.w3.org/2000/svg" role="img" aria-labelledby="title">
  <title id="title">Pomodoro Tomato Icon</title>
  <defs>
    <radialGradient id="tomatoBody" cx="30%" cy="8%" r="80%">
      <stop offset="0%" stop-color="#fed7d7"/>
      <stop offset="45%" stop-color="#fb4d3d"/>
      <stop offset="100%" stop-color="#991b1b"/>
    </radialGradient>
    <radialGradient id="tomatoHighlight" cx="20%" cy="0%" r="60%">
      <stop offset="0%" stop-color="rgba(255,255,255,0.9)"/>
      <stop offset="100%" stop-color="rgba(255,255,255,0)"/>
    </radialGradient>
    <radialGradient id="leafGrad" cx="0%" cy="0%" r="100%">
      <stop offset="0%" stop-color="#bbf7d0"/>
      <stop offset="55%" stop-color="#22c55e"/>
      <stop offset="100%" stop-color="#166534"/>
    </radialGradient>
    <filter id="shadow" x="-50%" y="-50%" width="200%" height="200%">
      <feDropShadow dx="0" dy="32" stdDeviation="36" flood-color="#020617" flood-opacity="0.85"/>
    </filter>
  </defs>
  <rect width="512" height="512" rx="160" fill="#020617"/>
  <g filter="url(#shadow)" transform="translate(32 32)">
    <circle cx="224" cy="232" r="176" fill="url(#tomatoBody)"/>
    <ellipse cx="176" cy="148" rx="82" ry="62" fill="url(#tomatoHighlight)" opacity="0.7"/>
    <path d="M208 64c-18 0-38 6-54 16-8-10-24-22-48-22-9 0-16 2-22 5 24 8 40 22 50 36-14 4-30 14-44 28 12 4 33 2 48-5-4 18-2 36 3 48 10-16 17-30 30-40 10 8 20 12 37 18-4-14-7-31-6-46 12 4 28 8 42 7-10-22-17-37-36-49-8-4-17-5-24-5z" fill="url(#leafGrad)"/>
    <circle cx="224" cy="232" r="132" fill="none" stroke="rgba(15,23,42,0.85)" stroke-width="12"/>
    <path d="M224 124a108 108 0 1 1-88 44" fill="none" stroke="#fee2e2" stroke-width="16" stroke-linecap="round" stroke-linejoin="round" stroke-dasharray="12 16" opacity="0.9"/>
    <circle cx="224" cy="232" r="18" fill="#020617" stroke="#fee2e2" stroke-width="6"/>
    <path d="M224 152v80" stroke="#fee2e2" stroke-width="10" stroke-linecap="round"/>
  </g>
</svg>

